# xmcd
#
# Track frame offsets:
#	150
#	14324
#	32892
#
# Disc length: 691 seconds
#
# Revision: 0
# Processed by: cddbd v1.4PL0 Copyright (c) Steve Scherf et al.
# Submitted via: audiograbber 1.82.02
#
DISCID=1b02b103
DTITLE=Laura Cantrell - All The Same To You
DYEAR=2002
DGENRE=Country
TTITLE0=All The Same To You
TTITLE1=When The Roses Bloom Again (Arranged by Wilco)
TTITLE2=High On A Hilltop
EXTD=
EXTT0=
EXTT1=
EXTT2=
PLAYORDER=
